<svg xmlns="http://www.w3.org/2000/svg" xmlns:xlink="http://www.w3.org/1999/xlink" width="500" zoomAndPan="magnify" viewBox="0 0 375 374.999991" height="500" preserveAspectRatio="xMidYMid meet" version="1.0"><defs><clipPath id="8d18698509"><path d="M 2.804688 18 L 372.554688 18 L 372.554688 356.84375 L 2.804688 356.84375 Z M 2.804688 18 " clip-rule="nonzero"/></clipPath><clipPath id="72d585eebe"><path d="M 209.578125 186.484375 L 212.414062 191.480469 C 212.527344 191.714844 212.640625 191.953125 212.734375 192.195312 L 213.015625 192.898438 L 213.785156 195.765625 C 213.824219 196 213.863281 196.242188 213.890625 196.476562 C 214.039062 197.652344 214.058594 198.863281 213.945312 200.046875 C 213.929688 200.28125 213.898438 200.523438 213.863281 200.761719 L 213.769531 201.378906 L 212.953125 204.328125 C 212.855469 204.574219 212.761719 204.808594 212.660156 205.042969 L 212.332031 205.753906 C 212.210938 206 212.085938 206.234375 211.957031 206.46875 L 210.527344 208.609375 C 210.339844 208.855469 210.144531 209.089844 209.9375 209.324219 C 208.980469 210.402344 207.84375 211.390625 206.613281 212.179688 L 205.785156 212.6875 C 204.480469 213.429688 203.109375 213.972656 201.71875 214.320312 L 201.710938 214.320312 C 199.070312 214.988281 196.347656 214.957031 193.785156 214.320312 L 191.605469 213.605469 C 190.65625 213.222656 189.738281 212.742188 188.863281 212.179688 C 188.207031 211.757812 187.578125 211.277344 186.984375 210.75 C 186.488281 210.308594 186.007812 209.832031 185.558594 209.324219 C 185.351562 209.097656 185.15625 208.855469 184.964844 208.609375 L 183.539062 206.46875 L 167.480469 178.652344 L 104.28125 69.195312 L 104.308594 69.175781 L 103.613281 68.03125 C 103.464844 67.785156 103.3125 67.550781 103.152344 67.316406 L 101.828125 65.4375 L 99.191406 62.320312 L 98.496094 61.605469 C 97.746094 60.855469 96.964844 60.140625 96.15625 59.464844 L 94.75 58.339844 L 92.429688 56.714844 L 88.382812 54.460938 C 86.609375 53.605469 84.75 52.890625 82.859375 52.328125 C 80.457031 51.617188 77.988281 51.125 75.480469 50.902344 C 72.765625 50.648438 70.023438 50.695312 67.308594 51.042969 L 64.050781 51.617188 C 63.140625 51.820312 62.238281 52.054688 61.335938 52.328125 C 58.96875 53.050781 56.699219 54 54.527344 55.183594 C 54.339844 55.285156 54.152344 55.390625 53.964844 55.492188 L 53.28125 55.886719 L 51.074219 57.316406 L 50.085938 58.027344 C 49.785156 58.253906 49.496094 58.480469 49.214844 58.707031 L 47.503906 60.160156 L 46.5 61.109375 L 44.6875 63.023438 C 44.480469 63.261719 44.273438 63.503906 44.078125 63.738281 L 42.414062 65.878906 L 41.644531 66.996094 L 40.988281 68.019531 L 39.757812 70.160156 L 39.042969 71.589844 C 38.929688 71.824219 38.816406 72.058594 38.714844 72.304688 L 37.824219 74.445312 L 37.082031 76.585938 L 36.667969 78.011719 L 36.480469 78.726562 L 36.152344 80.152344 C 36.105469 80.386719 36.058594 80.632812 36.011719 80.867188 L 35.511719 84.4375 C 35.464844 84.914062 35.4375 85.382812 35.410156 85.863281 C 35.398438 86.097656 35.390625 86.34375 35.378906 86.578125 C 35.363281 87.054688 35.363281 87.527344 35.363281 88.003906 L 35.550781 91.574219 C 35.597656 92.050781 35.652344 92.523438 35.71875 93 C 35.757812 93.234375 35.785156 93.480469 35.820312 93.714844 L 36.085938 95.140625 L 36.996094 98.710938 L 37.464844 100.136719 C 37.550781 100.371094 37.632812 100.617188 37.726562 100.851562 C 38 101.574219 38.300781 102.289062 38.621094 102.992188 L 39.671875 105.132812 L 40.066406 105.847656 L 40.46875 106.5625 L 154.183594 303.515625 L 155.460938 305.65625 C 155.601562 305.898438 155.742188 306.132812 155.882812 306.367188 L 156.335938 307.082031 C 156.484375 307.328125 156.644531 307.5625 156.804688 307.796875 L 157.300781 308.507812 C 157.46875 308.753906 157.648438 308.988281 157.816406 309.222656 L 159.546875 311.363281 L 160.859375 312.792969 L 161.808594 313.730469 L 163.96875 315.648438 L 165.265625 316.660156 L 167.96875 318.5 L 169.21875 319.242188 L 173.191406 321.179688 L 177.464844 322.660156 L 181.125 323.496094 C 185.417969 324.257812 189.839844 324.277344 194.1875 323.496094 L 197.363281 322.785156 C 199.886719 322.097656 202.320312 321.140625 204.632812 319.929688 L 205.9375 319.214844 L 207.261719 318.5 L 209.957031 316.640625 L 211.542969 315.375 C 213.234375 313.9375 214.773438 312.371094 216.171875 310.660156 L 219.1875 306.378906 C 219.300781 306.191406 219.410156 305.992188 219.523438 305.796875 L 219.554688 305.816406 L 277.511719 205.425781 L 283.890625 194.394531 L 283.972656 194.25 L 302.726562 161.777344 L 312.898438 144.171875 L 314.824219 140.835938 L 332.957031 109.433594 L 334.261719 107.160156 L 334.9375 105.929688 L 334.957031 105.941406 L 335.003906 105.855469 L 336.742188 102.289062 C 336.84375 102.054688 336.9375 101.820312 337.03125 101.574219 C 337.3125 100.871094 337.566406 100.15625 337.800781 99.433594 L 338.167969 98.25 L 338.429688 97.292969 L 338.917969 95.152344 C 339.011719 94.671875 339.097656 94.203125 339.171875 93.722656 C 339.210938 93.488281 339.246094 93.246094 339.277344 93.011719 C 339.339844 92.53125 339.398438 92.0625 339.445312 91.582031 L 339.585938 89.441406 C 339.605469 88.960938 339.613281 88.492188 339.613281 88.015625 C 339.613281 87.777344 339.613281 87.535156 339.605469 87.300781 L 339.546875 85.871094 L 339.398438 84.070312 L 339.171875 82.304688 C 339.136719 82.070312 339.097656 81.824219 339.050781 81.589844 L 338.777344 80.164062 L 338.441406 78.734375 L 338.253906 78.023438 C 338.1875 77.789062 338.121094 77.542969 338.046875 77.308594 L 337.078125 74.453125 L 336.175781 72.3125 C 336.0625 72.078125 335.960938 71.832031 335.839844 71.597656 L 335.480469 70.886719 C 335.359375 70.648438 335.238281 70.40625 335.105469 70.171875 L 334.300781 68.742188 L 332.976562 66.667969 L 331.332031 64.460938 L 329.460938 62.320312 C 329.238281 62.078125 329.003906 61.84375 328.777344 61.605469 C 328.035156 60.863281 327.265625 60.152344 326.449219 59.464844 L 324.644531 58.039062 L 323.460938 57.195312 L 322.570312 56.609375 L 320.0625 55.183594 C 319.078125 54.65625 318.070312 54.179688 317.058594 53.757812 C 311.414062 51.378906 305.273438 50.488281 299.195312 51.097656 C 298.011719 51.222656 296.828125 51.390625 295.664062 51.617188 L 292.667969 52.328125 L 291.777344 52.59375 L 288.003906 53.980469 C 286.285156 54.714844 284.554688 55.625 282.96875 56.609375 L 280.847656 58.039062 L 277.371094 60.894531 L 276.628906 61.605469 L 275.269531 63.035156 L 274.5625 63.832031 L 274.039062 64.460938 L 271.945312 67.316406 L 270.621094 69.457031 C 270.347656 69.925781 270.09375 70.40625 269.839844 70.886719 L 269.144531 72.3125 L 268.855469 72.960938 L 268.28125 74.339844 L 267.257812 77.308594 L 266.527344 80.164062 C 266.480469 80.398438 266.429688 80.640625 266.382812 80.878906 L 266.140625 82.304688 L 265.878906 84.445312 L 265.785156 85.675781 L 265.773438 85.871094 L 265.726562 87.300781 C 265.726562 87.535156 265.726562 87.777344 265.726562 88.015625 L 265.925781 91.582031 C 265.953125 91.816406 265.980469 92.0625 266.007812 92.296875 L 266.101562 92.992188 L 266.636719 95.863281 C 266.695312 96.097656 266.75 96.34375 266.808594 96.578125 L 267.191406 98.003906 C 267.332031 98.484375 267.484375 98.964844 267.644531 99.433594 L 268.148438 100.859375 L 268.722656 102.289062 L 269.933594 104.8125 L 269.625 104.269531 L 276.28125 115.800781 L 279.117188 120.796875 C 279.230469 121.03125 279.34375 121.265625 279.4375 121.511719 L 279.71875 122.214844 L 280.488281 125.078125 C 280.527344 125.3125 280.566406 125.558594 280.59375 125.792969 C 280.742188 126.96875 280.761719 128.179688 280.648438 129.363281 C 280.628906 129.597656 280.601562 129.839844 280.566406 130.074219 L 280.472656 130.695312 L 279.652344 133.644531 C 279.589844 133.886719 279.464844 134.121094 279.363281 134.359375 L 279.035156 135.070312 C 278.921875 135.316406 278.789062 135.550781 278.660156 135.785156 L 277.230469 137.925781 C 277.042969 138.171875 276.847656 138.40625 276.640625 138.640625 C 275.679688 139.71875 274.546875 140.707031 273.316406 141.496094 L 272.488281 142 C 271.183594 142.742188 269.8125 143.289062 268.421875 143.636719 L 268.414062 143.636719 C 265.773438 144.300781 263.050781 144.273438 260.488281 143.636719 L 258.308594 142.921875 C 257.332031 142.601562 256.441406 142.058594 255.566406 141.496094 C 254.910156 141.070312 254.28125 140.59375 253.6875 140.066406 C 253.191406 139.625 252.710938 139.148438 252.261719 138.640625 C 252.054688 138.414062 251.855469 138.171875 251.667969 137.925781 L 250.242188 135.785156 L 240.839844 119.5 L 240.4375 118.710938 C 240.089844 118.007812 239.753906 117.292969 239.421875 116.570312 L 238.953125 115.5 L 238.503906 114.429688 C 238.210938 113.726562 237.929688 113.003906 237.660156 112.289062 L 237.339844 111.425781 L 236.898438 110.15625 L 236.210938 108.015625 C 236.136719 107.78125 236.070312 107.539062 235.996094 107.300781 C 235.789062 106.589844 235.59375 105.875 235.414062 105.160156 C 235.359375 104.925781 235.292969 104.691406 235.234375 104.449219 L 234.746094 102.308594 C 234.699219 102.070312 234.644531 101.828125 234.597656 101.59375 L 234.203125 99.453125 L 233.78125 96.597656 C 233.75 96.363281 233.722656 96.117188 233.695312 95.882812 L 233.480469 93.742188 C 233.460938 93.507812 233.441406 93.261719 233.421875 93.027344 L 233.261719 90.171875 L 233.261719 85.179688 C 233.273438 84.941406 233.28125 84.699219 233.292969 84.464844 C 233.328125 83.75 233.367188 83.035156 233.421875 82.324219 C 233.441406 82.089844 233.460938 81.84375 233.480469 81.609375 C 233.546875 80.894531 233.621094 80.183594 233.703125 79.46875 C 233.734375 79.234375 233.761719 78.988281 233.789062 78.753906 C 233.882812 78.039062 233.988281 77.328125 234.097656 76.613281 C 234.136719 76.378906 234.175781 76.132812 234.222656 75.898438 L 234.625 73.757812 L 235.273438 70.902344 L 235.847656 68.761719 L 236.492188 66.621094 C 236.570312 66.386719 236.644531 66.144531 236.730469 65.90625 C 236.964844 65.195312 237.21875 64.480469 237.480469 63.765625 L 237.882812 62.695312 L 239.21875 59.484375 C 239.320312 59.25 239.433594 59.003906 239.535156 58.769531 L 240.570312 56.628906 C 240.8125 56.152344 241.058594 55.679688 241.300781 55.203125 L 242.511719 53.023438 L 244.691406 49.492188 C 244.851562 49.257812 245.011719 49.015625 245.171875 48.777344 L 246.683594 46.636719 L 248.476562 44.289062 L 248.691406 44.019531 L 250.082031 42.355469 C 250.289062 42.113281 250.496094 41.878906 250.703125 41.640625 L 251.339844 40.929688 L 253.667969 38.496094 L 255.59375 36.65625 L 256.382812 35.941406 L 258.027344 34.515625 C 258.910156 33.773438 259.800781 33.058594 260.710938 32.375 L 262.664062 30.945312 L 264.515625 29.6875 L 268.300781 27.378906 L 273.898438 24.523438 C 276.3125 23.425781 278.753906 22.484375 281.269531 21.667969 L 284.714844 20.652344 L 289.597656 19.535156 C 292.058594 19.066406 294.546875 18.71875 297.054688 18.523438 C 301.816406 18.136719 306.53125 18.222656 311.308594 18.824219 C 314.136719 19.179688 316.417969 19.613281 319.085938 20.25 L 321.800781 20.972656 C 324.65625 21.789062 327.003906 22.652344 329.902344 23.855469 L 334.402344 25.96875 L 338.402344 28.214844 L 338.476562 28.261719 L 341.40625 30.121094 L 343.644531 31.679688 C 344.28125 32.148438 344.910156 32.617188 345.53125 33.105469 L 348.957031 35.960938 L 351.980469 38.816406 C 352.214844 39.050781 352.453125 39.285156 352.6875 39.53125 L 355.917969 43.097656 C 356.113281 43.332031 356.3125 43.578125 356.507812 43.8125 L 357.652344 45.238281 L 357.90625 45.566406 L 360.246094 48.808594 L 361.183594 50.234375 C 361.335938 50.46875 361.484375 50.714844 361.636719 50.949219 L 362.046875 51.617188 L 363.324219 53.804688 L 363.71875 54.515625 L 365.136719 57.257812 L 366.867188 61.070312 L 367.9375 63.796875 L 368.6875 65.9375 C 368.761719 66.171875 368.847656 66.414062 368.921875 66.648438 L 369.363281 68.078125 L 369.878906 69.917969 L 370.640625 73.0625 C 370.699219 73.296875 370.746094 73.542969 370.792969 73.777344 L 371.636719 78.773438 C 371.664062 79.007812 371.703125 79.242188 371.730469 79.488281 L 372.152344 84.484375 C 372.164062 84.71875 372.171875 84.960938 372.179688 85.195312 L 372.191406 90.191406 C 372.179688 90.425781 372.171875 90.671875 372.164062 90.90625 L 371.832031 95.1875 L 371.75 95.902344 C 371.722656 96.136719 371.691406 96.382812 371.664062 96.617188 L 371.617188 97.011719 L 371.121094 100.183594 C 371.074219 100.417969 371.035156 100.664062 370.988281 100.898438 L 369.832031 105.894531 C 369.769531 106.128906 369.703125 106.371094 369.636719 106.609375 L 369.15625 108.230469 L 368.019531 111.59375 C 367.9375 111.828125 367.84375 112.074219 367.757812 112.308594 L 366.527344 115.339844 L 366.292969 115.875 L 365.878906 116.796875 L 364.949219 118.742188 C 364.828125 118.976562 364.714844 119.21875 364.59375 119.453125 L 364.21875 120.167969 L 362.707031 122.890625 L 362.726562 122.910156 L 362.21875 123.738281 L 328.84375 181.535156 L 321.707031 193.894531 L 321.488281 194.28125 L 302.738281 226.761719 L 250.570312 317.128906 L 247.679688 322.136719 L 247.707031 322.15625 L 247.601562 322.332031 L 247.5 322.511719 L 244.765625 326.804688 L 242.457031 329.96875 L 240.117188 332.824219 C 239.910156 333.066406 239.707031 333.300781 239.488281 333.535156 L 235.339844 337.816406 L 232.128906 340.671875 C 231.246094 341.40625 230.34375 342.121094 229.433594 342.8125 L 227.460938 344.242188 L 225.335938 345.667969 L 223.027344 347.097656 L 221.789062 347.808594 L 215.984375 350.738281 L 212.746094 352.09375 C 211.410156 352.609375 210.066406 353.085938 208.714844 353.519531 L 205.476562 354.46875 L 200.226562 355.660156 C 198.675781 355.953125 197.109375 356.1875 195.539062 356.375 C 187.359375 357.339844 179.246094 356.84375 171.238281 354.945312 C 168.136719 354.207031 165.125 353.257812 162.15625 352.09375 L 160.363281 351.359375 L 155.828125 349.238281 L 151.929688 347.050781 L 151.875 347.011719 L 151.320312 346.675781 L 149.28125 345.386719 L 146.679688 343.59375 L 144.691406 342.101562 L 143.769531 341.367188 L 140.304688 338.371094 L 136.867188 334.953125 C 136.640625 334.71875 136.425781 334.476562 136.210938 334.242188 L 134.953125 332.8125 L 134.699219 332.511719 L 133.515625 331.085938 L 132.554688 329.863281 L 131.035156 327.808594 L 129.4375 325.46875 L 127.777344 322.8125 L 126.902344 321.273438 L 126.160156 319.957031 L 12.871094 123.746094 L 12.289062 122.863281 L 11.5 121.4375 L 10.851562 120.160156 L 10.703125 119.875 L 8.765625 115.875 L 8.757812 115.859375 L 7.292969 112.308594 C 7.199219 112.074219 7.113281 111.828125 7.03125 111.59375 L 6.484375 110.0625 L 5.019531 105.171875 C 4.953125 104.9375 4.898438 104.703125 4.84375 104.457031 L 3.789062 99.460938 C 3.753906 99.226562 3.707031 98.992188 3.667969 98.746094 L 3.234375 95.582031 L 3.058594 93.75 C 3.039062 93.515625 3.019531 93.273438 3 93.039062 L 2.804688 88.050781 C 2.804688 87.816406 2.804688 87.574219 2.804688 87.335938 L 3.019531 82.34375 C 3.039062 82.105469 3.058594 81.863281 3.078125 81.628906 L 3.21875 80.199219 L 3.949219 75.203125 C 3.996094 74.96875 4.035156 74.726562 4.082031 74.492188 L 4.464844 72.632812 L 5.855469 67.363281 L 6.082031 66.648438 L 6.804688 64.507812 L 7.359375 62.996094 C 8.289062 60.535156 9.425781 57.992188 10.644531 55.664062 L 14.09375 49.746094 L 15.902344 47.089844 L 17.285156 45.238281 C 17.472656 44.996094 17.652344 44.761719 17.839844 44.523438 L 22.195312 39.53125 C 22.429688 39.285156 22.65625 39.050781 22.890625 38.816406 L 25.894531 35.960938 C 26.714844 35.226562 27.550781 34.515625 28.402344 33.820312 L 30.226562 32.390625 L 31.183594 31.679688 C 31.851562 31.191406 32.527344 30.722656 33.203125 30.25 L 36.394531 28.167969 L 38.996094 26.703125 L 41.070312 25.621094 C 44.226562 24.054688 47.195312 22.804688 50.566406 21.6875 C 52.210938 21.152344 53.851562 20.671875 55.515625 20.257812 L 58.699219 19.546875 C 60.125 19.265625 61.5625 19.027344 62.988281 18.832031 C 69.132812 18.023438 75.152344 18.003906 81.359375 18.832031 L 81.367188 18.832031 L 85.828125 19.574219 C 89.921875 20.390625 93.941406 21.574219 97.828125 23.113281 L 103.265625 25.535156 L 106.75 27.394531 L 110.253906 29.539062 L 113.351562 31.679688 L 114.703125 32.691406 L 118.628906 35.960938 L 119.523438 36.777344 L 121.636719 38.816406 C 121.871094 39.050781 122.105469 39.292969 122.328125 39.53125 L 125.53125 43.097656 C 125.730469 43.332031 125.925781 43.566406 126.125 43.8125 L 127.25 45.238281 L 127.65625 45.773438 L 129.335938 48.09375 L 129.5625 48.421875 L 131.46875 51.351562 L 131.597656 51.550781 L 132.960938 53.804688 L 133.777344 55.230469 L 196.273438 163.46875 L 209.589844 186.523438 Z M 209.578125 186.484375 " clip-rule="evenodd"/></clipPath><linearGradient x1="432.512616" gradientTransform="matrix(0.939079, 0, 0, 0.939079, 2.804112, 18.18405)" y1="44.430936" x2="31.43591" gradientUnits="userSpaceOnUse" y2="396.446031" id="8e7b827999"><stop stop-opacity="1" stop-color="rgb(73.550415%, 37.667847%, 90.483093%)" offset="0"/><stop stop-opacity="1" stop-color="rgb(73.374939%, 37.530518%, 90.490723%)" offset="0.0078125"/><stop stop-opacity="1" stop-color="rgb(73.023987%, 37.255859%, 90.505981%)" offset="0.015625"/><stop stop-opacity="1" stop-color="rgb(72.673035%, 36.981201%, 90.522766%)" offset="0.0234375"/><stop stop-opacity="1" stop-color="rgb(72.322083%, 36.708069%, 90.539551%)" offset="0.03125"/><stop stop-opacity="1" stop-color="rgb(71.97113%, 36.433411%, 90.556335%)" offset="0.0390625"/><stop stop-opacity="1" stop-color="rgb(71.620178%, 36.158752%, 90.571594%)" offset="0.046875"/><stop stop-opacity="1" stop-color="rgb(71.269226%, 35.884094%, 90.588379%)" offset="0.0546875"/><stop stop-opacity="1" stop-color="rgb(70.918274%, 35.609436%, 90.605164%)" offset="0.0625"/><stop stop-opacity="1" stop-color="rgb(70.568848%, 35.334778%, 90.621948%)" offset="0.0703125"/><stop stop-opacity="1" stop-color="rgb(70.217896%, 35.06012%, 90.638733%)" offset="0.078125"/><stop stop-opacity="1" stop-color="rgb(69.866943%, 34.785461%, 90.653992%)" offset="0.0859375"/><stop stop-opacity="1" stop-color="rgb(69.515991%, 34.510803%, 90.670776%)" offset="0.09375"/><stop stop-opacity="1" stop-color="rgb(69.165039%, 34.237671%, 90.687561%)" offset="0.101563"/><stop stop-opacity="1" stop-color="rgb(68.814087%, 33.963013%, 90.704346%)" offset="0.109375"/><stop stop-opacity="1" stop-color="rgb(68.463135%, 33.688354%, 90.719604%)" offset="0.117188"/><stop stop-opacity="1" stop-color="rgb(68.112183%, 33.413696%, 90.736389%)" offset="0.125"/><stop stop-opacity="1" stop-color="rgb(67.76123%, 33.139038%, 90.753174%)" offset="0.132813"/><stop stop-opacity="1" stop-color="rgb(67.410278%, 32.86438%, 90.769958%)" offset="0.140625"/><stop stop-opacity="1" stop-color="rgb(67.059326%, 32.589722%, 90.786743%)" offset="0.148438"/><stop stop-opacity="1" stop-color="rgb(66.708374%, 32.315063%, 90.802002%)" offset="0.15625"/><stop stop-opacity="1" stop-color="rgb(66.357422%, 32.040405%, 90.818787%)" offset="0.164063"/><stop stop-opacity="1" stop-color="rgb(66.00647%, 31.767273%, 90.835571%)" offset="0.171875"/><stop stop-opacity="1" stop-color="rgb(65.655518%, 31.492615%, 90.852356%)" offset="0.179688"/><stop stop-opacity="1" stop-color="rgb(65.304565%, 31.217957%, 90.867615%)" offset="0.1875"/><stop stop-opacity="1" stop-color="rgb(64.953613%, 30.943298%, 90.884399%)" offset="0.195312"/><stop stop-opacity="1" stop-color="rgb(64.602661%, 30.66864%, 90.901184%)" offset="0.203125"/><stop stop-opacity="1" stop-color="rgb(64.251709%, 30.393982%, 90.917969%)" offset="0.210938"/><stop stop-opacity="1" stop-color="rgb(63.900757%, 30.119324%, 90.933228%)" offset="0.21875"/><stop stop-opacity="1" stop-color="rgb(63.549805%, 29.844666%, 90.950012%)" offset="0.226562"/><stop stop-opacity="1" stop-color="rgb(63.198853%, 29.571533%, 90.966797%)" offset="0.234375"/><stop stop-opacity="1" stop-color="rgb(62.8479%, 29.296875%, 90.983582%)" offset="0.242188"/><stop stop-opacity="1" stop-color="rgb(62.496948%, 29.022217%, 91.000366%)" offset="0.25"/><stop stop-opacity="1" stop-color="rgb(62.145996%, 28.747559%, 91.015625%)" offset="0.257812"/><stop stop-opacity="1" stop-color="rgb(61.795044%, 28.4729%, 91.03241%)" offset="0.265625"/><stop stop-opacity="1" stop-color="rgb(61.444092%, 28.198242%, 91.049194%)" offset="0.273438"/><stop stop-opacity="1" stop-color="rgb(61.09314%, 27.923584%, 91.065979%)" offset="0.28125"/><stop stop-opacity="1" stop-color="rgb(60.742188%, 27.648926%, 91.081238%)" offset="0.289062"/><stop stop-opacity="1" stop-color="rgb(60.391235%, 27.374268%, 91.098022%)" offset="0.296875"/><stop stop-opacity="1" stop-color="rgb(60.040283%, 27.101135%, 91.114807%)" offset="0.304688"/><stop stop-opacity="1" stop-color="rgb(59.689331%, 26.826477%, 91.131592%)" offset="0.3125"/><stop stop-opacity="1" stop-color="rgb(59.338379%, 26.551819%, 91.146851%)" offset="0.320312"/><stop stop-opacity="1" stop-color="rgb(58.987427%, 26.277161%, 91.163635%)" offset="0.328125"/><stop stop-opacity="1" stop-color="rgb(58.636475%, 26.002502%, 91.18042%)" offset="0.335938"/><stop stop-opacity="1" stop-color="rgb(58.285522%, 25.727844%, 91.197205%)" offset="0.34375"/><stop stop-opacity="1" stop-color="rgb(57.93457%, 25.453186%, 91.213989%)" offset="0.351562"/><stop stop-opacity="1" stop-color="rgb(57.583618%, 25.178528%, 91.229248%)" offset="0.359375"/><stop stop-opacity="1" stop-color="rgb(57.232666%, 24.90387%, 91.246033%)" offset="0.367188"/><stop stop-opacity="1" stop-color="rgb(56.881714%, 24.630737%, 91.262817%)" offset="0.375"/><stop stop-opacity="1" stop-color="rgb(56.530762%, 24.356079%, 91.279602%)" offset="0.382812"/><stop stop-opacity="1" stop-color="rgb(56.181335%, 24.081421%, 91.294861%)" offset="0.390625"/><stop stop-opacity="1" stop-color="rgb(55.830383%, 23.806763%, 91.311646%)" offset="0.398437"/><stop stop-opacity="1" stop-color="rgb(55.479431%, 23.532104%, 91.32843%)" offset="0.40625"/><stop stop-opacity="1" stop-color="rgb(55.128479%, 23.257446%, 91.345215%)" offset="0.414062"/><stop stop-opacity="1" stop-color="rgb(54.777527%, 22.982788%, 91.362%)" offset="0.421875"/><stop stop-opacity="1" stop-color="rgb(54.426575%, 22.70813%, 91.377258%)" offset="0.429687"/><stop stop-opacity="1" stop-color="rgb(54.075623%, 22.433472%, 91.394043%)" offset="0.4375"/><stop stop-opacity="1" stop-color="rgb(53.72467%, 22.160339%, 91.410828%)" offset="0.445312"/><stop stop-opacity="1" stop-color="rgb(53.373718%, 21.885681%, 91.427612%)" offset="0.446011"/><stop stop-opacity="1" stop-color="rgb(53.198242%, 21.748352%, 91.435242%)" offset="0.453125"/><stop stop-opacity="1" stop-color="rgb(53.022766%, 21.611023%, 91.442871%)" offset="0.460937"/><stop stop-opacity="1" stop-color="rgb(52.671814%, 21.336365%, 91.459656%)" offset="0.46875"/><stop stop-opacity="1" stop-color="rgb(52.320862%, 21.061707%, 91.47644%)" offset="0.476562"/><stop stop-opacity="1" stop-color="rgb(51.96991%, 20.787048%, 91.493225%)" offset="0.484375"/><stop stop-opacity="1" stop-color="rgb(51.618958%, 20.51239%, 91.508484%)" offset="0.492188"/><stop stop-opacity="1" stop-color="rgb(51.268005%, 20.237732%, 91.525269%)" offset="0.5"/><stop stop-opacity="1" stop-color="rgb(50.917053%, 19.963074%, 91.542053%)" offset="0.507812"/><stop stop-opacity="1" stop-color="rgb(50.566101%, 19.689941%, 91.558838%)" offset="0.515625"/><stop stop-opacity="1" stop-color="rgb(50.215149%, 19.415283%, 91.575623%)" offset="0.523438"/><stop stop-opacity="1" stop-color="rgb(49.864197%, 19.140625%, 91.590881%)" offset="0.53125"/><stop stop-opacity="1" stop-color="rgb(49.513245%, 18.865967%, 91.607666%)" offset="0.539063"/><stop stop-opacity="1" stop-color="rgb(49.162292%, 18.591309%, 91.624451%)" offset="0.546875"/><stop stop-opacity="1" stop-color="rgb(48.81134%, 18.31665%, 91.641235%)" offset="0.553989"/><stop stop-opacity="1" stop-color="rgb(48.635864%, 18.179321%, 91.648865%)" offset="0.554688"/><stop stop-opacity="1" stop-color="rgb(48.460388%, 18.041992%, 91.656494%)" offset="0.5625"/><stop stop-opacity="1" stop-color="rgb(48.109436%, 17.767334%, 91.673279%)" offset="0.570313"/><stop stop-opacity="1" stop-color="rgb(47.758484%, 17.492676%, 91.690063%)" offset="0.578125"/><stop stop-opacity="1" stop-color="rgb(47.407532%, 17.219543%, 91.706848%)" offset="0.585938"/><stop stop-opacity="1" stop-color="rgb(47.05658%, 16.944885%, 91.723633%)" offset="0.59375"/><stop stop-opacity="1" stop-color="rgb(46.705627%, 16.670227%, 91.738892%)" offset="0.601563"/><stop stop-opacity="1" stop-color="rgb(46.354675%, 16.395569%, 91.755676%)" offset="0.609375"/><stop stop-opacity="1" stop-color="rgb(46.003723%, 16.120911%, 91.772461%)" offset="0.617188"/><stop stop-opacity="1" stop-color="rgb(45.652771%, 15.846252%, 91.789246%)" offset="0.625"/><stop stop-opacity="1" stop-color="rgb(45.301819%, 15.571594%, 91.804504%)" offset="0.632813"/><stop stop-opacity="1" stop-color="rgb(44.950867%, 15.296936%, 91.821289%)" offset="0.640625"/><stop stop-opacity="1" stop-color="rgb(44.599915%, 15.023804%, 91.838074%)" offset="0.648438"/><stop stop-opacity="1" stop-color="rgb(44.248962%, 14.749146%, 91.854858%)" offset="0.65625"/><stop stop-opacity="1" stop-color="rgb(43.89801%, 14.474487%, 91.870117%)" offset="0.664063"/><stop stop-opacity="1" stop-color="rgb(43.547058%, 14.199829%, 91.886902%)" offset="0.671875"/><stop stop-opacity="1" stop-color="rgb(43.196106%, 13.925171%, 91.903687%)" offset="0.679688"/><stop stop-opacity="1" stop-color="rgb(42.845154%, 13.650513%, 91.920471%)" offset="0.6875"/><stop stop-opacity="1" stop-color="rgb(42.494202%, 13.375854%, 91.937256%)" offset="0.695313"/><stop stop-opacity="1" stop-color="rgb(42.144775%, 13.101196%, 91.952515%)" offset="0.703125"/><stop stop-opacity="1" stop-color="rgb(41.793823%, 12.826538%, 91.969299%)" offset="0.710938"/><stop stop-opacity="1" stop-color="rgb(41.442871%, 12.553406%, 91.986084%)" offset="0.71875"/><stop stop-opacity="1" stop-color="rgb(41.091919%, 12.278748%, 92.002869%)" offset="0.726563"/><stop stop-opacity="1" stop-color="rgb(40.740967%, 12.004089%, 92.018127%)" offset="0.734375"/><stop stop-opacity="1" stop-color="rgb(40.390015%, 11.729431%, 92.034912%)" offset="0.742188"/><stop stop-opacity="1" stop-color="rgb(40.039062%, 11.454773%, 92.051697%)" offset="0.75"/><stop stop-opacity="1" stop-color="rgb(39.68811%, 11.180115%, 92.068481%)" offset="0.757813"/><stop stop-opacity="1" stop-color="rgb(39.337158%, 10.905457%, 92.08374%)" offset="0.765625"/><stop stop-opacity="1" stop-color="rgb(38.986206%, 10.630798%, 92.100525%)" offset="0.773438"/><stop stop-opacity="1" stop-color="rgb(38.635254%, 10.35614%, 92.11731%)" offset="0.78125"/><stop stop-opacity="1" stop-color="rgb(38.284302%, 10.083008%, 92.134094%)" offset="0.789063"/><stop stop-opacity="1" stop-color="rgb(37.93335%, 9.80835%, 92.150879%)" offset="0.796875"/><stop stop-opacity="1" stop-color="rgb(37.582397%, 9.533691%, 92.166138%)" offset="0.804688"/><stop stop-opacity="1" stop-color="rgb(37.231445%, 9.259033%, 92.182922%)" offset="0.8125"/><stop stop-opacity="1" stop-color="rgb(36.976624%, 9.060669%, 92.195129%)" offset="0.875"/><stop stop-opacity="1" stop-color="rgb(36.898804%, 8.999634%, 92.199707%)" offset="1"/></linearGradient></defs><g clip-path="url(#8d18698509)"><g clip-path="url(#72d585eebe)"><path fill="url(#8e7b827999)" d="M 2.804688 18.003906 L 2.804688 356.84375 L 372.191406 356.84375 L 372.191406 18.003906 Z M 2.804688 18.003906 " fill-rule="nonzero"/></g></g></svg>